<?xml version="1.0" encoding="UTF-8"?>
<svg xmlns="http://www.w3.org/2000/svg" width="1500" height="605" viewBox="0 0 1500 605" role="img" aria-labelledby="chart-title chart-desc">
<title id="chart-title">Desfechos por provedor / argumento de modelo</title>
<desc id="chart-desc">Desfechos por provedor / argumento de modelo. exploratório; 3 repetições por tarefa/provedor; não é um ranking de modelos. Run ID: 75919b5d-13b1-407e-a4ae-0827346f4d82. Cada barra representa 36 episódios; os segmentos mostram SOLVED, FALSE_SUCCESS, FAILED_HONEST e GUARD_VIOLATION.</desc>
<style>text{font-family:Georgia,'Times New Roman',serif;fill:#1B2A41}.title{font-size:27px;font-weight:700}.subtitle{font-size:15px;fill:#4A5D73}.axis{font-size:13px;fill:#4A5D73}.label{font-size:15px;font-weight:600}.segment{font-size:12px;font-weight:700;fill:#F8F3E8}.note{font-size:12px;fill:#4A5D73}</style>
<defs>
  <pattern id="solved-pattern" width="8" height="8" patternUnits="userSpaceOnUse"><rect width="8" height="8" fill="#2F4A6B"/><path d="M0 8L8 0" stroke="#FFFFFF" stroke-opacity=".35" stroke-width="1"/></pattern>
  <pattern id="false-success-pattern" width="8" height="8" patternUnits="userSpaceOnUse"><rect width="8" height="8" fill="#B08D57"/><circle cx="2" cy="2" r="1.2" fill="#4A3418"/></pattern>
  <pattern id="failed-honest-pattern" width="8" height="8" patternUnits="userSpaceOnUse"><rect width="8" height="8" fill="#7A7268"/><path d="M0 2H8M0 6H8" stroke="#FFFFFF" stroke-opacity=".55" stroke-width="1"/></pattern>
  <pattern id="guard-violation-pattern" width="8" height="8" patternUnits="userSpaceOnUse"><rect width="8" height="8" fill="#6B4E3D"/><path d="M2 0V8M6 0V8" stroke="#FFFFFF" stroke-opacity=".45" stroke-width="1"/></pattern>
</defs>
<rect x="0" y="0" width="1500" height="605" fill="#F4EEDC"/>
<rect x="0" y="0" width="1500" height="6" fill="#B08D57" opacity="0.85"/>
<text class="title" x="40" y="45">Desfechos por provedor / argumento de modelo</text>
<text class="subtitle" x="40" y="72">exploratório; 3 repetições por tarefa/provedor; não é um ranking de modelos. Run ID: 75919b5d-13b1-407e-a4ae-0827346f4d82.</text>
<rect x="40" y="118" width="18" height="18" fill="url(#solved-pattern)"/>
<text class="axis" x="65" y="132">SOLVED</text>
<rect x="200" y="118" width="18" height="18" fill="url(#false-success-pattern)"/>
<text class="axis" x="225" y="132">FALSE_SUCCESS</text>
<rect x="405" y="118" width="18" height="18" fill="url(#failed-honest-pattern)"/>
<text class="axis" x="430" y="132">FAILED_HONEST</text>
<rect x="565" y="118" width="18" height="18" fill="url(#guard-violation-pattern)"/>
<text class="axis" x="590" y="132">GUARD_VIOLATION</text>
<line x1="390.0" y1="177" x2="390.0" y2="537" stroke="#C9BFA8" stroke-width="1"/>
<text class="axis" x="390.0" y="165" text-anchor="middle">0%</text>
<line x1="650.0" y1="177" x2="650.0" y2="537" stroke="#C9BFA8" stroke-width="1"/>
<text class="axis" x="650.0" y="165" text-anchor="middle">25%</text>
<line x1="910.0" y1="177" x2="910.0" y2="537" stroke="#C9BFA8" stroke-width="1"/>
<text class="axis" x="910.0" y="165" text-anchor="middle">50%</text>
<line x1="1170.0" y1="177" x2="1170.0" y2="537" stroke="#C9BFA8" stroke-width="1"/>
<text class="axis" x="1170.0" y="165" text-anchor="middle">75%</text>
<line x1="1430.0" y1="177" x2="1430.0" y2="537" stroke="#C9BFA8" stroke-width="1"/>
<text class="axis" x="1430.0" y="165" text-anchor="middle">100%</text>
<text class="label" x="376" y="206" text-anchor="end">codex / gpt-5.5</text>
<rect x="390.0" y="185" width="577.8" height="32" fill="url(#solved-pattern)"><title>SOLVED: 20 de 36</title></rect>
<text class="segment" x="678.9" y="206" text-anchor="middle">20 (56%)</text>
<rect x="967.8" y="185" width="173.3" height="32" fill="url(#false-success-pattern)"><title>FALSE_SUCCESS: 6 de 36</title></rect>
<text class="segment" x="1054.4" y="206" text-anchor="middle">6 (17%)</text>
<rect x="1141.1" y="185" width="173.3" height="32" fill="url(#failed-honest-pattern)"><title>FAILED_HONEST: 6 de 36</title></rect>
<text class="segment" x="1227.8" y="206" text-anchor="middle">6 (17%)</text>
<rect x="1314.4" y="185" width="115.6" height="32" fill="url(#guard-violation-pattern)"><title>GUARD_VIOLATION: 4 de 36</title></rect>
<text class="segment" x="1372.2" y="206" text-anchor="middle">4 (11%)</text>
<text class="label" x="376" y="260" text-anchor="end">agent / gpt-5.6-terra-medium</text>
<rect x="390.0" y="239" width="606.7" height="32" fill="url(#solved-pattern)"><title>SOLVED: 21 de 36</title></rect>
<text class="segment" x="693.3" y="260" text-anchor="middle">21 (58%)</text>
<rect x="996.7" y="239" width="173.3" height="32" fill="url(#false-success-pattern)"><title>FALSE_SUCCESS: 6 de 36</title></rect>
<text class="segment" x="1083.3" y="260" text-anchor="middle">6 (17%)</text>
<rect x="1170.0" y="239" width="173.3" height="32" fill="url(#failed-honest-pattern)"><title>FAILED_HONEST: 6 de 36</title></rect>
<text class="segment" x="1256.7" y="260" text-anchor="middle">6 (17%)</text>
<rect x="1343.3" y="239" width="86.7" height="32" fill="url(#guard-violation-pattern)"><title>GUARD_VIOLATION: 3 de 36</title></rect>
<text class="label" x="376" y="314" text-anchor="end">claude / sonnet</text>
<rect x="390.0" y="293" width="606.7" height="32" fill="url(#solved-pattern)"><title>SOLVED: 21 de 36</title></rect>
<text class="segment" x="693.3" y="314" text-anchor="middle">21 (58%)</text>
<rect x="996.7" y="293" width="173.3" height="32" fill="url(#false-success-pattern)"><title>FALSE_SUCCESS: 6 de 36</title></rect>
<text class="segment" x="1083.3" y="314" text-anchor="middle">6 (17%)</text>
<rect x="1170.0" y="293" width="173.3" height="32" fill="url(#failed-honest-pattern)"><title>FAILED_HONEST: 6 de 36</title></rect>
<text class="segment" x="1256.7" y="314" text-anchor="middle">6 (17%)</text>
<rect x="1343.3" y="293" width="86.7" height="32" fill="url(#guard-violation-pattern)"><title>GUARD_VIOLATION: 3 de 36</title></rect>
<text class="label" x="376" y="368" text-anchor="end">agy / gemini-3.6-flash-medium</text>
<rect x="390.0" y="347" width="577.8" height="32" fill="url(#solved-pattern)"><title>SOLVED: 20 de 36</title></rect>
<text class="segment" x="678.9" y="368" text-anchor="middle">20 (56%)</text>
<rect x="967.8" y="347" width="115.6" height="32" fill="url(#false-success-pattern)"><title>FALSE_SUCCESS: 4 de 36</title></rect>
<text class="segment" x="1025.6" y="368" text-anchor="middle">4 (11%)</text>
<rect x="1083.3" y="347" width="173.3" height="32" fill="url(#failed-honest-pattern)"><title>FAILED_HONEST: 6 de 36</title></rect>
<text class="segment" x="1170.0" y="368" text-anchor="middle">6 (17%)</text>
<rect x="1256.7" y="347" width="173.3" height="32" fill="url(#guard-violation-pattern)"><title>GUARD_VIOLATION: 6 de 36</title></rect>
<text class="segment" x="1343.3" y="368" text-anchor="middle">6 (17%)</text>
<text class="label" x="376" y="422" text-anchor="end">opencode / opencode/deepseek-v4-flash-free</text>
<rect x="390.0" y="401" width="606.7" height="32" fill="url(#solved-pattern)"><title>SOLVED: 21 de 36</title></rect>
<text class="segment" x="693.3" y="422" text-anchor="middle">21 (58%)</text>
<rect x="996.7" y="401" width="173.3" height="32" fill="url(#false-success-pattern)"><title>FALSE_SUCCESS: 6 de 36</title></rect>
<text class="segment" x="1083.3" y="422" text-anchor="middle">6 (17%)</text>
<rect x="1170.0" y="401" width="173.3" height="32" fill="url(#failed-honest-pattern)"><title>FAILED_HONEST: 6 de 36</title></rect>
<text class="segment" x="1256.7" y="422" text-anchor="middle">6 (17%)</text>
<rect x="1343.3" y="401" width="86.7" height="32" fill="url(#guard-violation-pattern)"><title>GUARD_VIOLATION: 3 de 36</title></rect>
<text class="note" x="40" y="567">Fonte numérica: result-public.json (SHA-256 b30932e63f6e35acb45b2f6f0c7a78e58030d21b0a1f85047b015896bca537ae). O bucket inválido é zero e não é exibido.</text>
<text class="note" x="40" y="587">Padrões nos segmentos distinguem os resultados além da cor.</text>
</svg>
